<?xml version="1.0" ?><!DOCTYPE svg  PUBLIC '-//W3C//DTD SVG 1.1//EN'  'http://www.w3.org/Graphics/SVG/1.1/DTD/svg11.dtd'><svg enable-background="new 0 0 64 64" height="64px" id="Android" version="1.1" viewBox="0 0 64 64" width="64px" xml:space="preserve" xmlns="http://www.w3.org/2000/svg" xmlns:xlink="http://www.w3.org/1999/xlink"><linearGradient gradientTransform="matrix(1 0 0 1 -548 -727)" gradientUnits="userSpaceOnUse" id="Circle_Shadow_1_" x1="612.001" x2="580.0009" y1="791.001" y2="759.0009"><stop offset="0.3163" style="stop-color:#FFFFFF;stop-opacity:0"/><stop offset="0.3508" style="stop-color:#E9E9E9;stop-opacity:0.0504"/><stop offset="0.4543" style="stop-color:#ACACAC;stop-opacity:0.2018"/><stop offset="0.5572" style="stop-color:#787878;stop-opacity:0.3523"/><stop offset="0.6569" style="stop-color:#4D4D4D;stop-opacity:0.4981"/><stop offset="0.7528" style="stop-color:#2B2B2B;stop-opacity:0.6385"/><stop offset="0.8441" style="stop-color:#131313;stop-opacity:0.7719"/><stop offset="0.9286" style="stop-color:#050505;stop-opacity:0.8956"/><stop offset="1" style="stop-color:#000000"/></linearGradient><polygon enable-background="new    " fill="url(#Circle_Shadow_1_)" id="Circle_Shadow" opacity="0.1" points="64,64 64,30.059   48.971,15.029 15.029,48.971 30.059,64 "/><circle cx="32" cy="32" fill="#B3C833" id="Circle" r="24"/><g id="Droid_shadow"><g><g><defs><circle cx="32" cy="32" id="SVGID_1_" r="24"/></defs><clipPath id="SVGID_2_"><use overflow="visible" xlink:href="#SVGID_1_"/></clipPath><linearGradient gradientTransform="matrix(1 0 0 1 -548 -727)" gradientUnits="userSpaceOnUse" id="SVGID_3_" x1="621.3955" x2="569.5826" y1="799.0234" y2="747.2107"><stop offset="0" style="stop-color:#FFFFFF;stop-opacity:0"/><stop offset="0.3207" style="stop-color:#A4A4A4;stop-opacity:0.3207"/><stop offset="0.6527" style="stop-color:#4D4D4D;stop-opacity:0.6527"/><stop offset="0.8871" style="stop-color:#151515;stop-opacity:0.8871"/><stop offset="1" style="stop-color:#000000"/></linearGradient><path clip-path="url(#SVGID_2_)" d="M75.368,59.048     c-0.035-0.037-0.069-0.073-0.106-0.108c-0.033-0.035-0.066-0.07-0.102-0.104c-0.034-0.037-0.068-0.074-0.105-0.107     c-0.031-0.033-0.063-0.067-0.098-0.102c-0.035-0.039-0.07-0.077-0.107-0.111c-0.033-0.035-0.063-0.068-0.1-0.104     c-0.035-0.037-0.068-0.074-0.105-0.107c-0.033-0.035-0.063-0.07-0.101-0.104c-0.035-0.037-0.069-0.074-0.106-0.108     c-0.03-0.035-0.063-0.07-0.101-0.104c-0.034-0.037-0.069-0.074-0.106-0.109c-0.031-0.035-0.063-0.068-0.099-0.102     c-0.034-0.037-0.067-0.073-0.104-0.107c-0.031-0.036-0.064-0.072-0.104-0.105c-0.033-0.037-0.066-0.071-0.102-0.105     c-0.034-0.036-0.068-0.072-0.104-0.105c-0.032-0.035-0.065-0.07-0.101-0.104c-0.035-0.037-0.07-0.074-0.107-0.108     c-0.031-0.037-0.064-0.07-0.101-0.104c-0.034-0.037-0.067-0.073-0.104-0.106c-0.031-0.037-0.063-0.072-0.1-0.104     c-0.035-0.036-0.068-0.073-0.105-0.107c-0.033-0.036-0.063-0.069-0.101-0.104c-0.034-0.035-0.067-0.072-0.104-0.106     c-0.033-0.036-0.065-0.071-0.104-0.106c-0.033-0.035-0.064-0.07-0.102-0.104c-0.034-0.037-0.067-0.073-0.104-0.106     c-0.032-0.037-0.065-0.072-0.103-0.105c-0.033-0.036-0.065-0.07-0.104-0.104c-0.031-0.037-0.064-0.074-0.104-0.107     c-0.033-0.036-0.067-0.072-0.104-0.107c-0.031-0.035-0.064-0.07-0.101-0.104c-0.035-0.039-0.07-0.076-0.108-0.111     c-0.031-0.035-0.063-0.068-0.099-0.102c-0.034-0.037-0.068-0.074-0.105-0.108c-0.03-0.036-0.063-0.071-0.1-0.104     c-0.035-0.036-0.069-0.072-0.104-0.106c-0.033-0.036-0.064-0.071-0.102-0.104c-0.034-0.036-0.066-0.073-0.104-0.106     c-0.033-0.036-0.065-0.071-0.104-0.104c-0.034-0.037-0.066-0.074-0.104-0.107c-0.033-0.036-0.065-0.07-0.104-0.104     c-0.033-0.037-0.064-0.072-0.102-0.105c-0.035-0.037-0.068-0.074-0.105-0.107c-0.032-0.037-0.063-0.072-0.102-0.104     c-0.033-0.036-0.067-0.073-0.105-0.108c-0.031-0.035-0.063-0.068-0.102-0.104c-0.032-0.037-0.066-0.073-0.104-0.107     c-0.03-0.035-0.063-0.07-0.099-0.104c-0.034-0.037-0.067-0.072-0.104-0.106c-0.035-0.036-0.07-0.073-0.107-0.108     c-0.031-0.034-0.063-0.069-0.102-0.104c-0.033-0.037-0.066-0.072-0.104-0.107c-0.033-0.033-0.065-0.068-0.102-0.104     c-0.033-0.038-0.068-0.075-0.106-0.111c-0.032-0.035-0.065-0.068-0.101-0.103c-0.033-0.037-0.068-0.073-0.104-0.106     c-0.032-0.037-0.063-0.07-0.101-0.104c-0.035-0.037-0.068-0.074-0.105-0.108c-0.032-0.035-0.064-0.07-0.1-0.104     c-0.035-0.035-0.067-0.072-0.104-0.105c-0.034-0.037-0.067-0.074-0.104-0.107c-0.026-0.03-0.055-0.063-0.084-0.092l1.943-1.985     c0.098-0.091,0.16-0.218,0.16-0.36c0-0.162-0.083-0.302-0.204-0.393c-0.028-0.04-0.063-0.075-0.103-0.105     c-0.03-0.041-0.063-0.076-0.104-0.105c-0.03-0.041-0.063-0.076-0.104-0.106c-0.027-0.04-0.063-0.075-0.102-0.104     c-0.029-0.041-0.063-0.075-0.104-0.106c-0.029-0.039-0.063-0.074-0.103-0.104c-0.028-0.041-0.063-0.074-0.104-0.105     c-0.029-0.041-0.063-0.075-0.103-0.105c-0.029-0.041-0.063-0.076-0.104-0.106c-0.029-0.041-0.063-0.076-0.104-0.104     c-0.029-0.041-0.063-0.076-0.104-0.105c-0.029-0.041-0.063-0.074-0.102-0.104c-0.029-0.041-0.063-0.076-0.104-0.106     c-0.029-0.041-0.063-0.076-0.103-0.106c-0.029-0.039-0.063-0.074-0.104-0.104c-0.029-0.041-0.063-0.078-0.104-0.107     c-0.029-0.04-0.063-0.074-0.103-0.104c-0.028-0.043-0.063-0.077-0.104-0.108c-0.027-0.039-0.063-0.073-0.102-0.104     c-0.029-0.041-0.063-0.075-0.104-0.106c-0.029-0.039-0.063-0.073-0.104-0.104c-0.028-0.041-0.063-0.076-0.104-0.105     c-0.028-0.041-0.063-0.076-0.103-0.105c-0.03-0.041-0.063-0.076-0.104-0.106c-0.028-0.039-0.063-0.074-0.101-0.104     c-0.03-0.041-0.063-0.078-0.104-0.108c-0.028-0.039-0.063-0.074-0.102-0.104c-0.029-0.041-0.063-0.076-0.104-0.105     c-0.029-0.04-0.063-0.075-0.104-0.106c-0.029-0.04-0.063-0.075-0.104-0.104c-0.03-0.041-0.063-0.076-0.104-0.107     c-0.029-0.039-0.063-0.074-0.104-0.104c-0.03-0.041-0.063-0.076-0.104-0.106c-0.029-0.041-0.063-0.075-0.104-0.104     c-0.029-0.041-0.063-0.076-0.104-0.105c-0.029-0.041-0.063-0.076-0.103-0.105c-0.03-0.041-0.063-0.076-0.104-0.106     c-0.027-0.041-0.063-0.074-0.102-0.104c-0.029-0.041-0.063-0.074-0.104-0.104c-0.029-0.041-0.063-0.076-0.104-0.105     c-0.029-0.041-0.063-0.076-0.104-0.106c-0.028-0.042-0.063-0.076-0.104-0.106c-0.029-0.039-0.063-0.074-0.102-0.104     c-0.029-0.041-0.063-0.075-0.104-0.106c-0.028-0.041-0.062-0.074-0.103-0.104c-0.029-0.042-0.063-0.077-0.104-0.107     c-0.028-0.038-0.062-0.073-0.101-0.104c-0.029-0.044-0.063-0.078-0.105-0.109c-0.027-0.039-0.063-0.073-0.102-0.104     c-0.028-0.041-0.063-0.075-0.103-0.104c-0.03-0.041-0.063-0.075-0.104-0.106c-0.028-0.041-0.062-0.075-0.103-0.105     c-0.028-0.041-0.063-0.076-0.104-0.107c-0.029-0.039-0.063-0.072-0.103-0.104c-0.029-0.042-0.063-0.076-0.104-0.107     c-0.028-0.039-0.063-0.074-0.104-0.104c-0.027-0.041-0.063-0.075-0.104-0.105c-0.029-0.041-0.063-0.076-0.102-0.105     c-0.029-0.041-0.063-0.076-0.104-0.107c-0.028-0.039-0.063-0.074-0.103-0.104c-0.028-0.041-0.063-0.076-0.104-0.106     c-0.03-0.041-0.063-0.075-0.104-0.106c-0.029-0.039-0.063-0.073-0.104-0.104c-0.029-0.041-0.063-0.078-0.104-0.109     c-0.029-0.039-0.063-0.072-0.103-0.104c-0.028-0.041-0.063-0.076-0.104-0.107c-0.028-0.041-0.063-0.074-0.103-0.104     c-0.028-0.041-0.063-0.075-0.104-0.105c-0.028-0.041-0.063-0.076-0.104-0.105c-0.029-0.041-0.063-0.076-0.104-0.105     c-0.029-0.041-0.063-0.076-0.104-0.104c-0.027-0.041-0.063-0.076-0.104-0.106c-0.029-0.039-0.063-0.074-0.103-0.104     c-0.03-0.041-0.063-0.077-0.104-0.106c-0.027-0.041-0.063-0.076-0.103-0.104c-0.028-0.042-0.063-0.077-0.104-0.106     c-0.028-0.04-0.063-0.075-0.104-0.106c-0.029-0.039-0.063-0.074-0.104-0.104c-0.029-0.041-0.063-0.075-0.104-0.106     c-0.028-0.041-0.063-0.074-0.103-0.104c-0.03-0.042-0.063-0.075-0.104-0.106c-0.029-0.041-0.063-0.074-0.103-0.104     c-0.029-0.042-0.063-0.077-0.104-0.106c-0.029-0.041-0.063-0.074-0.102-0.104c-0.031-0.042-0.064-0.077-0.105-0.108     c-0.027-0.039-0.063-0.074-0.102-0.104c-0.029-0.041-0.063-0.075-0.104-0.105c-0.028-0.041-0.063-0.076-0.104-0.106     c-0.029-0.041-0.063-0.076-0.104-0.106c-0.029-0.041-0.063-0.074-0.104-0.104c-0.028-0.04-0.063-0.075-0.103-0.105     c-0.029-0.041-0.063-0.076-0.104-0.107c-0.028-0.041-0.063-0.073-0.103-0.104c-0.028-0.04-0.063-0.073-0.104-0.104     c-0.029-0.041-0.063-0.075-0.104-0.105c-0.029-0.041-0.063-0.076-0.104-0.107c-0.028-0.041-0.063-0.073-0.104-0.104     c-0.028-0.039-0.063-0.073-0.102-0.104c-0.029-0.043-0.063-0.078-0.105-0.108c-0.028-0.041-0.063-0.075-0.104-0.104     c-0.027-0.039-0.063-0.074-0.102-0.104c-0.029-0.041-0.063-0.076-0.104-0.106c-0.028-0.041-0.063-0.074-0.103-0.104     c-0.028-0.041-0.063-0.077-0.104-0.106c-0.028-0.041-0.063-0.074-0.103-0.104c-0.028-0.041-0.063-0.076-0.103-0.106     c-0.028-0.041-0.063-0.076-0.104-0.105c-0.029-0.041-0.062-0.076-0.103-0.105c-0.029-0.041-0.063-0.076-0.104-0.107     c-0.029-0.041-0.063-0.073-0.104-0.104c-0.031-0.042-0.063-0.076-0.104-0.105c-0.029-0.041-0.063-0.076-0.104-0.105     c-0.029-0.041-0.063-0.076-0.104-0.105c-0.029-0.041-0.063-0.075-0.104-0.104c-0.029-0.042-0.063-0.077-0.104-0.106     c-0.028-0.041-0.063-0.074-0.102-0.105c-0.029-0.041-0.063-0.074-0.104-0.104c-0.028-0.043-0.063-0.078-0.104-0.108     c-0.029-0.039-0.063-0.073-0.102-0.104c-0.029-0.041-0.063-0.076-0.105-0.106c-0.026-0.041-0.061-0.074-0.1-0.104     c-0.029-0.041-0.064-0.078-0.105-0.107c-0.028-0.041-0.063-0.074-0.102-0.104c-0.029-0.041-0.063-0.075-0.104-0.106     c-0.028-0.041-0.063-0.075-0.104-0.104c-0.029-0.042-0.063-0.075-0.104-0.106c-0.028-0.041-0.063-0.074-0.103-0.104     c-0.028-0.041-0.063-0.075-0.103-0.106c-0.029-0.041-0.063-0.074-0.104-0.105c-0.028-0.041-0.063-0.076-0.104-0.105     c-0.028-0.041-0.062-0.076-0.102-0.104c-0.029-0.041-0.063-0.076-0.104-0.106c-0.029-0.041-0.063-0.076-0.104-0.105     c-0.029-0.041-0.063-0.076-0.104-0.105c-0.029-0.041-0.063-0.076-0.104-0.104c-0.029-0.041-0.063-0.076-0.104-0.106     c-0.029-0.041-0.063-0.076-0.104-0.105c-0.029-0.039-0.063-0.074-0.104-0.104c-0.028-0.04-0.063-0.075-0.104-0.106     c-0.029-0.04-0.063-0.075-0.104-0.104c-0.029-0.041-0.063-0.075-0.104-0.106c-0.029-0.041-0.063-0.074-0.102-0.104     c-0.029-0.041-0.063-0.076-0.104-0.105c-0.029-0.043-0.063-0.077-0.104-0.106c-0.029-0.041-0.063-0.076-0.103-0.104     c-0.031-0.041-0.063-0.076-0.104-0.107c-0.027-0.039-0.062-0.074-0.103-0.104c-0.028-0.043-0.063-0.078-0.104-0.108     c-0.028-0.039-0.062-0.072-0.101-0.104c-0.03-0.041-0.063-0.076-0.104-0.107c-0.029-0.04-0.063-0.073-0.104-0.104     c-0.028-0.041-0.063-0.076-0.104-0.106c-0.029-0.041-0.063-0.075-0.104-0.106c-0.029-0.041-0.063-0.074-0.104-0.104     c-0.028-0.041-0.063-0.076-0.104-0.106c-0.028-0.041-0.063-0.073-0.103-0.104c-0.03-0.041-0.063-0.076-0.104-0.105     c-0.028-0.041-0.062-0.076-0.102-0.105c-0.029-0.041-0.063-0.076-0.104-0.106c-0.029-0.041-0.063-0.073-0.104-0.104     c-0.027-0.041-0.063-0.075-0.104-0.105c-0.028-0.041-0.063-0.076-0.104-0.105c-0.029-0.041-0.063-0.077-0.104-0.106     c-0.028-0.041-0.063-0.076-0.104-0.106c-0.027-0.041-0.063-0.076-0.103-0.106c-0.029-0.041-0.063-0.076-0.104-0.106     c-0.029-0.042-0.063-0.077-0.104-0.107c-0.029-0.041-0.063-0.076-0.104-0.106c-0.029-0.041-0.063-0.075-0.103-0.105     c-0.029-0.042-0.063-0.077-0.104-0.107c-0.027-0.041-0.063-0.076-0.103-0.106c-0.029-0.041-0.063-0.076-0.104-0.106     c-0.029-0.041-0.063-0.076-0.103-0.106c-0.03-0.041-0.063-0.076-0.104-0.107c-0.029-0.041-0.063-0.076-0.104-0.106     c-0.028-0.041-0.063-0.075-0.102-0.105c-0.029-0.041-0.063-0.076-0.104-0.106c-0.028-0.041-0.063-0.076-0.104-0.106     c-0.028-0.041-0.063-0.076-0.102-0.106c-0.029-0.041-0.063-0.075-0.104-0.105c-0.029-0.042-0.063-0.077-0.104-0.107     c-0.028-0.041-0.063-0.076-0.104-0.106c-0.028-0.041-0.063-0.075-0.103-0.105c-0.028-0.041-0.063-0.076-0.104-0.107     c-0.027-0.041-0.063-0.076-0.103-0.106c-0.03-0.041-0.063-0.076-0.104-0.106c-0.027-0.042-0.063-0.077-0.104-0.107     c-0.029-0.041-0.063-0.075-0.102-0.105c-0.03-0.042-0.063-0.077-0.104-0.107c-0.028-0.041-0.063-0.075-0.103-0.105     c-0.029-0.041-0.063-0.076-0.104-0.106c-0.029-0.042-0.063-0.077-0.104-0.107c-0.028-0.041-0.063-0.076-0.104-0.106     c-0.028-0.041-0.063-0.076-0.104-0.106c-0.027-0.041-0.062-0.075-0.102-0.105c-0.029-0.042-0.063-0.078-0.104-0.108     c-0.029-0.04-0.063-0.075-0.102-0.104c-0.031-0.042-0.063-0.077-0.104-0.107c-0.03-0.041-0.063-0.076-0.104-0.106     c-0.029-0.041-0.063-0.076-0.104-0.106c-0.029-0.04-0.063-0.075-0.102-0.104c-0.029-0.042-0.063-0.077-0.104-0.108     c-0.029-0.041-0.062-0.075-0.103-0.105c-0.028-0.041-0.063-0.076-0.104-0.107c-0.029-0.041-0.063-0.075-0.104-0.105     c-0.027-0.042-0.063-0.076-0.104-0.107c-0.029-0.042-0.063-0.077-0.104-0.108c-0.029-0.04-0.063-0.075-0.104-0.104     c-0.03-0.042-0.063-0.077-0.104-0.107c-0.028-0.041-0.063-0.076-0.104-0.106c-0.027-0.041-0.063-0.076-0.104-0.106     c-0.028-0.041-0.063-0.076-0.104-0.106c-0.027-0.041-0.063-0.076-0.104-0.106c-0.028-0.041-0.063-0.075-0.104-0.105     c-0.029-0.042-0.063-0.077-0.104-0.108c-0.029-0.04-0.063-0.075-0.104-0.105c-0.026-0.041-0.063-0.075-0.103-0.105     c-0.028-0.042-0.063-0.077-0.104-0.108c-0.027-0.042-0.063-0.077-0.104-0.107c-0.029-0.041-0.063-0.075-0.104-0.105     c-0.029-0.041-0.063-0.076-0.104-0.106c-0.029-0.042-0.063-0.076-0.104-0.107c-0.028-0.041-0.063-0.076-0.104-0.106     c-0.028-0.041-0.063-0.076-0.104-0.106c-0.029-0.041-0.063-0.075-0.104-0.105c-0.028-0.042-0.063-0.077-0.104-0.108     c-0.029-0.041-0.063-0.076-0.104-0.106c-0.028-0.041-0.063-0.075-0.102-0.105c-0.029-0.042-0.063-0.077-0.104-0.107     c-0.028-0.041-0.063-0.076-0.104-0.106c-0.027-0.041-0.062-0.075-0.102-0.105c-0.029-0.041-0.063-0.076-0.104-0.106     c-0.029-0.042-0.063-0.077-0.104-0.107c-0.028-0.041-0.063-0.075-0.103-0.105c-0.029-0.042-0.063-0.077-0.104-0.107     c-0.027-0.041-0.063-0.075-0.103-0.105c-0.029-0.042-0.063-0.077-0.104-0.108c-0.028-0.04-0.063-0.074-0.104-0.104     c-0.027-0.042-0.063-0.077-0.104-0.107c-0.029-0.041-0.063-0.075-0.102-0.105c-0.03-0.041-0.063-0.076-0.104-0.107     c-0.028-0.041-0.062-0.075-0.103-0.105c-0.028-0.042-0.063-0.077-0.104-0.108c-0.029-0.041-0.063-0.075-0.102-0.105     c-0.03-0.042-0.063-0.077-0.104-0.107c-0.028-0.041-0.063-0.076-0.103-0.106c-0.029-0.041-0.063-0.076-0.104-0.106     c-0.031-0.042-0.063-0.077-0.104-0.107c-0.029-0.041-0.063-0.075-0.104-0.105c-0.029-0.042-0.063-0.077-0.104-0.107     c-0.029-0.041-0.063-0.076-0.104-0.106c-0.028-0.041-0.063-0.076-0.104-0.106c-0.028-0.041-0.063-0.076-0.102-0.105     c-0.029-0.042-0.063-0.076-0.104-0.107c-0.028-0.041-0.063-0.076-0.104-0.106c-0.029-0.042-0.063-0.077-0.104-0.107     c-0.028-0.041-0.063-0.075-0.104-0.105c-0.027-0.041-0.063-0.076-0.103-0.106c-0.03-0.041-0.063-0.076-0.104-0.106     c-0.029-0.042-0.063-0.077-0.104-0.107c-0.029-0.041-0.063-0.075-0.104-0.105c-0.027-0.041-0.063-0.075-0.101-0.105     c-0.031-0.042-0.063-0.078-0.104-0.108c-0.029-0.041-0.063-0.075-0.104-0.106c-0.029-0.041-0.063-0.076-0.103-0.106     c-0.029-0.041-0.063-0.076-0.104-0.106c-0.031-0.041-0.063-0.076-0.104-0.107c-0.029-0.041-0.063-0.075-0.104-0.105     c-0.029-0.041-0.063-0.076-0.104-0.106c-0.03-0.042-0.063-0.077-0.104-0.107c-0.028-0.041-0.063-0.076-0.104-0.106     c-0.028-0.041-0.063-0.076-0.103-0.106c-0.028-0.041-0.063-0.075-0.103-0.105c-0.028-0.042-0.063-0.077-0.104-0.107     c-0.028-0.041-0.063-0.076-0.104-0.106c-0.026-0.041-0.063-0.075-0.102-0.105c-0.029-0.041-0.063-0.076-0.104-0.106     c-0.028-0.042-0.063-0.077-0.104-0.107c-0.028-0.041-0.062-0.075-0.103-0.105c-0.028-0.042-0.063-0.077-0.104-0.107     c-0.029-0.041-0.063-0.075-0.103-0.105c-0.028-0.042-0.063-0.077-0.104-0.107c-0.027-0.041-0.062-0.075-0.102-0.105     c-0.029-0.042-0.063-0.077-0.104-0.107c-0.029-0.041-0.063-0.076-0.104-0.105c-0.029-0.042-0.063-0.076-0.103-0.107     c-0.029-0.041-0.063-0.076-0.104-0.106c-0.029-0.041-0.063-0.075-0.104-0.105c-0.031-0.042-0.063-0.077-0.104-0.107     c-0.029-0.041-0.063-0.075-0.103-0.105c-0.031-0.042-0.063-0.076-0.104-0.107c-0.029-0.041-0.063-0.076-0.104-0.106     c-0.029-0.041-0.063-0.075-0.104-0.105c-0.029-0.041-0.063-0.076-0.104-0.106c-0.028-0.042-0.063-0.077-0.104-0.108     c-0.027-0.04-0.063-0.075-0.102-0.104c-0.029-0.042-0.063-0.077-0.104-0.107c-0.028-0.041-0.063-0.076-0.104-0.106     c-0.028-0.041-0.063-0.076-0.104-0.106c-0.027-0.041-0.063-0.076-0.104-0.106c-0.09-0.126-0.23-0.214-0.398-0.214     c-0.164,0-0.28,0.094-0.395,0.207l-2.103,2.121C35.706,18.996,34.02,18.5,32,18.5c-2.015,0-3.698,0.494-4.998,1.337l-2.108-2.13     C24.781,17.594,24.665,17.5,24.5,17.5c-0.276,0-0.5,0.224-0.5,0.5c0,0.143,0.062,0.271,0.158,0.361l0.1,0.102     c0.001,0.001,0.002,0.003,0.003,0.004l0.101,0.103c0.001,0.001,0.001,0.002,0.002,0.003l0.1,0.103     c0.001,0.001,0.002,0.003,0.003,0.004l0.101,0.103c0.001,0.001,0.001,0.002,0.002,0.003l0.099,0.102     c0.001,0.001,0.002,0.003,0.003,0.004l0.099,0.101c0.002,0.002,0.002,0.004,0.004,0.006l0.101,0.103     c0.001,0.001,0.001,0.002,0.002,0.003l0.098,0.1c0.001,0.002,0.002,0.004,0.004,0.006l0.101,0.103     c0.001,0.001,0.001,0.002,0.002,0.003l0.102,0.104c0.001,0.001,0.001,0.002,0.002,0.003l0.099,0.101     c0.002,0.002,0.002,0.004,0.004,0.006l0.101,0.103c0.001,0.001,0.001,0.002,0.002,0.003l0.099,0.102     c0.001,0.001,0.002,0.003,0.003,0.004l0.099,0.101c0.002,0.002,0.002,0.004,0.004,0.006l0.101,0.103     c0.001,0.001,0.001,0.002,0.002,0.003l0.1,0.102c0.001,0.001,0.002,0.003,0.003,0.004l0.101,0.103     c0.001,0.001,0.001,0.002,0.002,0.003l0.1,0.102c0.001,0.001,0.002,0.003,0.003,0.004l0.099,0.101     c0.002,0.002,0.002,0.004,0.004,0.006l0.07,0.071C24.774,21.706,24,23.473,24,25.5h0.107c0,0.036-0.005,0.07-0.005,0.106h0.108     c-0.001,0.036-0.005,0.07-0.005,0.106h0.109c-0.001,0.036-0.005,0.07-0.005,0.106h0.108c0,0.036-0.005,0.07-0.005,0.106h0.107     c0,0.036-0.005,0.07-0.005,0.106h0.108c-0.001,0.036-0.005,0.07-0.005,0.106h0.109c-0.001,0.036-0.005,0.07-0.005,0.106h0.108     c-0.001,0.036-0.005,0.07-0.005,0.106h0.108c0,0.036-0.005,0.07-0.005,0.106h0.108c0,0.015-0.002,0.029-0.002,0.043H24v2.23     c-0.029-0.031-0.059-0.061-0.09-0.09c-0.033-0.036-0.066-0.071-0.102-0.105c-0.034-0.037-0.067-0.073-0.103-0.106     c-0.034-0.037-0.067-0.072-0.103-0.106c-0.033-0.036-0.066-0.072-0.102-0.105c-0.034-0.037-0.068-0.073-0.104-0.107     c-0.034-0.037-0.067-0.072-0.104-0.106c-0.034-0.037-0.067-0.073-0.104-0.106c-0.033-0.036-0.066-0.071-0.101-0.105     c-0.034-0.037-0.067-0.073-0.104-0.107c-0.034-0.037-0.067-0.073-0.104-0.106c-0.033-0.037-0.066-0.072-0.103-0.106     c-0.033-0.036-0.066-0.072-0.102-0.105c-0.034-0.037-0.067-0.073-0.104-0.108c-0.034-0.037-0.067-0.073-0.104-0.107     C22.103,26.754,21.583,26.5,21,26.5c-1.104,0-2,0.896-2,2v7c0,0.573,0.245,1.088,0.633,1.452     c0.034,0.037,0.068,0.073,0.104,0.108c0.033,0.035,0.067,0.07,0.103,0.104c0.033,0.037,0.067,0.07,0.103,0.105     c0.034,0.037,0.067,0.072,0.104,0.106c0.033,0.036,0.066,0.071,0.103,0.104c0.033,0.037,0.066,0.071,0.103,0.104     c0.033,0.036,0.066,0.071,0.102,0.104c0.034,0.037,0.068,0.072,0.105,0.107c0.033,0.036,0.066,0.071,0.102,0.105     c0.034,0.035,0.067,0.072,0.103,0.104c0.034,0.036,0.067,0.072,0.104,0.106c0.034,0.035,0.067,0.072,0.104,0.105     c0.033,0.036,0.066,0.071,0.102,0.104c0.034,0.036,0.067,0.071,0.103,0.106c0.033,0.034,0.066,0.07,0.102,0.104     c0.034,0.037,0.069,0.072,0.106,0.107c0.032,0.035,0.064,0.069,0.099,0.104c0.035,0.038,0.069,0.075,0.107,0.108     c0.032,0.035,0.064,0.07,0.099,0.104c0.035,0.038,0.069,0.075,0.106,0.109c0.034,0.035,0.067,0.07,0.103,0.105     c0.034,0.035,0.067,0.071,0.103,0.104c0.034,0.037,0.066,0.072,0.103,0.106c0.033,0.034,0.065,0.07,0.101,0.104     c0.035,0.037,0.069,0.074,0.106,0.109c0.034,0.034,0.067,0.07,0.104,0.104c0.033,0.036,0.066,0.069,0.102,0.104     c0.034,0.036,0.067,0.072,0.104,0.106c0.034,0.036,0.067,0.071,0.103,0.104c0.034,0.037,0.067,0.072,0.103,0.105     c0.034,0.037,0.067,0.072,0.104,0.107c0.033,0.035,0.065,0.069,0.101,0.104c0.035,0.038,0.069,0.075,0.106,0.109     c0.033,0.035,0.066,0.069,0.102,0.104c0.033,0.035,0.066,0.07,0.101,0.104c0.034,0.037,0.068,0.072,0.104,0.106     c0.034,0.037,0.067,0.072,0.104,0.106c0.033,0.035,0.066,0.07,0.101,0.104c0.034,0.037,0.068,0.073,0.105,0.107     c0.033,0.035,0.065,0.07,0.101,0.104c0.035,0.039,0.069,0.076,0.107,0.11c0.032,0.035,0.064,0.069,0.099,0.103     c0.034,0.037,0.068,0.074,0.105,0.109c0.033,0.035,0.066,0.07,0.101,0.104c0.034,0.037,0.067,0.073,0.104,0.106     c0.033,0.037,0.067,0.073,0.103,0.106c0.034,0.037,0.068,0.072,0.104,0.105c0.033,0.037,0.066,0.071,0.102,0.105     c0.033,0.035,0.066,0.07,0.103,0.104c0.033,0.035,0.066,0.071,0.103,0.104c0.034,0.037,0.067,0.072,0.104,0.107     c0.033,0.035,0.066,0.07,0.102,0.104c0.034,0.036,0.068,0.073,0.105,0.106c0.033,0.037,0.066,0.072,0.103,0.105     c0.033,0.035,0.066,0.072,0.103,0.105c0.034,0.036,0.067,0.071,0.104,0.106c0.033,0.035,0.066,0.069,0.102,0.104     c0.034,0.035,0.067,0.07,0.104,0.105c0.034,0.036,0.067,0.072,0.104,0.105c0.034,0.037,0.067,0.071,0.104,0.106     c0.033,0.035,0.065,0.069,0.1,0.104c0.035,0.037,0.069,0.074,0.106,0.108c0.032,0.035,0.064,0.07,0.099,0.103     c0.035,0.039,0.068,0.074,0.105,0.108c0.033,0.037,0.067,0.072,0.103,0.105c0.033,0.036,0.066,0.071,0.103,0.106     c0.034,0.035,0.067,0.07,0.103,0.105c0.034,0.035,0.068,0.072,0.105,0.107c0.032,0.032,0.064,0.067,0.099,0.102     c0.035,0.038,0.07,0.076,0.108,0.111c0.032,0.035,0.064,0.067,0.1,0.104c0.034,0.037,0.067,0.072,0.104,0.105v0.041     c-0.019,0.697,0.254,1.133,0.601,1.401c0.036,0.035,0.065,0.078,0.103,0.106c0.036,0.033,0.065,0.076,0.103,0.106     c0.036,0.032,0.065,0.075,0.103,0.106c0.036,0.031,0.066,0.076,0.104,0.105c0.036,0.032,0.065,0.075,0.103,0.104     c0.036,0.032,0.065,0.075,0.103,0.104c0.035,0.033,0.064,0.076,0.102,0.105c0.036,0.031,0.065,0.076,0.104,0.105     c0.037,0.033,0.067,0.078,0.105,0.106c0.035,0.033,0.063,0.074,0.099,0.104c0.037,0.035,0.068,0.078,0.106,0.108     c0.036,0.033,0.065,0.076,0.104,0.104c0.035,0.033,0.064,0.076,0.102,0.105c0.036,0.033,0.065,0.076,0.103,0.104     c0.036,0.035,0.066,0.078,0.104,0.107c0.035,0.032,0.064,0.075,0.102,0.104c0.036,0.033,0.065,0.076,0.102,0.105     c0.036,0.033,0.066,0.078,0.104,0.107c0.036,0.031,0.064,0.076,0.102,0.105c0.037,0.033,0.067,0.077,0.105,0.106     c0.035,0.032,0.064,0.075,0.102,0.104c0.036,0.032,0.065,0.075,0.103,0.105c0.036,0.033,0.065,0.076,0.104,0.105     c0.035,0.031,0.063,0.074,0.1,0.104c0.037,0.035,0.067,0.078,0.106,0.107c0.036,0.033,0.065,0.076,0.102,0.105     c0.036,0.034,0.066,0.077,0.104,0.105c0.035,0.033,0.064,0.076,0.102,0.105c0.036,0.033,0.065,0.076,0.103,0.105     c0.036,0.033,0.065,0.076,0.103,0.105c0.036,0.032,0.065,0.076,0.102,0.104c0.037,0.035,0.066,0.078,0.105,0.107     c0.036,0.033,0.065,0.077,0.103,0.105c0.036,0.033,0.065,0.076,0.102,0.104c0.036,0.033,0.064,0.076,0.102,0.105     c0.036,0.032,0.065,0.075,0.104,0.106c0.036,0.032,0.065,0.075,0.103,0.104c0.036,0.035,0.065,0.078,0.103,0.107     c0.036,0.032,0.066,0.076,0.104,0.105c0.036,0.031,0.065,0.074,0.103,0.104c0.036,0.033,0.064,0.076,0.102,0.105     c0.036,0.033,0.066,0.076,0.104,0.107c0.036,0.031,0.065,0.076,0.103,0.104c0.036,0.033,0.065,0.076,0.103,0.104     c0.036,0.033,0.064,0.076,0.102,0.105c0.036,0.034,0.066,0.077,0.104,0.107c0.036,0.033,0.065,0.076,0.104,0.104     c0.035,0.033,0.063,0.076,0.103,0.104c0.035,0.033,0.064,0.076,0.103,0.104c0.036,0.034,0.065,0.078,0.104,0.106     c0.037,0.033,0.063,0.076,0.103,0.104c0.036,0.033,0.065,0.077,0.103,0.106c0.035,0.033,0.065,0.076,0.104,0.105     c0.035,0.033,0.063,0.077,0.104,0.106c0.035,0.032,0.064,0.077,0.104,0.106c0.035,0.031,0.063,0.074,0.104,0.104     c0.033,0.033,0.063,0.078,0.104,0.107c0.035,0.032,0.064,0.076,0.104,0.104c0.035,0.033,0.064,0.076,0.104,0.104     c0.036,0.033,0.064,0.076,0.104,0.105c0.034,0.034,0.063,0.077,0.104,0.105c0.036,0.035,0.064,0.078,0.104,0.107     c0.034,0.032,0.063,0.075,0.103,0.104c0.034,0.033,0.063,0.076,0.104,0.105c0.034,0.033,0.063,0.076,0.104,0.105     c0.035,0.033,0.064,0.076,0.104,0.106c0.036,0.032,0.065,0.076,0.104,0.105c0.034,0.032,0.063,0.075,0.104,0.104     c0.034,0.033,0.063,0.076,0.104,0.106c0.035,0.032,0.064,0.075,0.104,0.104c0.035,0.032,0.064,0.075,0.103,0.104     c0.036,0.034,0.065,0.077,0.104,0.104c0.036,0.035,0.066,0.078,0.104,0.107c0.037,0.033,0.064,0.077,0.104,0.105     c0.036,0.032,0.063,0.078,0.104,0.104c0.037,0.034,0.066,0.078,0.104,0.106c0.035,0.033,0.063,0.076,0.102,0.104     c0.037,0.034,0.065,0.077,0.104,0.106c0.035,0.031,0.063,0.074,0.102,0.104c0.037,0.035,0.066,0.079,0.106,0.11     c0.035,0.031,0.063,0.074,0.103,0.104c0.035,0.032,0.063,0.076,0.103,0.104c0.036,0.035,0.065,0.078,0.104,0.106     c0.035,0.033,0.063,0.078,0.104,0.106c0.035,0.033,0.064,0.076,0.104,0.104c0.035,0.033,0.063,0.076,0.103,0.105     c0.035,0.033,0.065,0.078,0.104,0.107c0.035,0.032,0.063,0.075,0.102,0.104c0.035,0.033,0.064,0.076,0.104,0.105     c0.037,0.033,0.067,0.078,0.105,0.107c0.035,0.033,0.063,0.075,0.102,0.104c0.037,0.035,0.066,0.078,0.104,0.108     c0.035,0.032,0.063,0.074,0.102,0.104c0.036,0.033,0.066,0.078,0.104,0.106c0.036,0.033,0.065,0.076,0.104,0.104     c0.035,0.033,0.063,0.076,0.104,0.105c0.035,0.033,0.064,0.078,0.104,0.105c0.035,0.033,0.064,0.076,0.103,0.104     c0.036,0.033,0.065,0.076,0.104,0.106c0.035,0.033,0.065,0.076,0.104,0.105c0.033,0.033,0.064,0.076,0.103,0.107     c0.036,0.031,0.065,0.074,0.104,0.104c0.033,0.032,0.063,0.075,0.102,0.104c0.037,0.034,0.066,0.077,0.105,0.108     c0.033,0.031,0.063,0.072,0.1,0.104c0.035,0.031,0.064,0.076,0.104,0.105c0.037,0.033,0.065,0.078,0.104,0.106     c0.036,0.035,0.065,0.078,0.104,0.106c0.033,0.033,0.063,0.076,0.1,0.104c0.037,0.033,0.064,0.078,0.104,0.106     c0.035,0.033,0.065,0.076,0.104,0.106c0.035,0.032,0.063,0.075,0.103,0.104c0.035,0.033,0.065,0.078,0.104,0.107     c0.032,0.032,0.063,0.073,0.099,0.104c0.038,0.035,0.069,0.08,0.108,0.111c0.035,0.031,0.063,0.073,0.101,0.104     c0.034,0.031,0.063,0.076,0.104,0.105c0.035,0.033,0.064,0.078,0.104,0.106c0.036,0.033,0.064,0.076,0.104,0.104     c0.034,0.033,0.063,0.076,0.104,0.105c0.034,0.033,0.063,0.076,0.104,0.105c0.035,0.033,0.064,0.076,0.104,0.104     c0.035,0.033,0.064,0.076,0.102,0.104c0.037,0.035,0.066,0.078,0.105,0.108c0.035,0.032,0.064,0.075,0.102,0.104     c0.037,0.033,0.064,0.076,0.104,0.104c0.035,0.034,0.063,0.077,0.104,0.106c0.035,0.032,0.063,0.077,0.104,0.106     c0.035,0.033,0.066,0.077,0.105,0.107c0.033,0.033,0.063,0.074,0.102,0.104c0.035,0.033,0.064,0.077,0.104,0.105     c0.035,0.033,0.063,0.076,0.103,0.105c0.035,0.032,0.063,0.076,0.104,0.104c0.035,0.035,0.063,0.078,0.104,0.106     c0.037,0.033,0.064,0.076,0.104,0.105c0.037,0.033,0.066,0.078,0.104,0.107c0.035,0.031,0.063,0.074,0.103,0.104     c0.037,0.032,0.065,0.077,0.104,0.105c0.035,0.033,0.063,0.076,0.104,0.105c0.035,0.033,0.063,0.076,0.102,0.105     c0.037,0.033,0.064,0.076,0.104,0.105c0.037,0.033,0.065,0.076,0.104,0.104c0.037,0.035,0.066,0.078,0.104,0.107     c0.037,0.033,0.065,0.077,0.104,0.105c0.037,0.033,0.064,0.076,0.104,0.105c0.037,0.032,0.064,0.075,0.104,0.104     c0.037,0.032,0.065,0.077,0.104,0.106c0.035,0.032,0.063,0.075,0.103,0.104c0.034,0.032,0.063,0.077,0.103,0.106     c0.036,0.032,0.067,0.076,0.106,0.106c0.032,0.031,0.063,0.074,0.099,0.104c0.036,0.033,0.067,0.08,0.106,0.108     c0.034,0.032,0.063,0.075,0.1,0.104c0.037,0.035,0.066,0.078,0.104,0.106c0.035,0.033,0.063,0.076,0.103,0.104     c0.035,0.033,0.063,0.076,0.104,0.106c0.035,0.033,0.066,0.077,0.104,0.106c0.035,0.033,0.063,0.074,0.102,0.104     c0.037,0.034,0.066,0.079,0.105,0.109c0.035,0.031,0.063,0.074,0.102,0.104c0.035,0.034,0.064,0.078,0.104,0.107     c0.035,0.033,0.063,0.076,0.104,0.105c0.035,0.032,0.064,0.076,0.104,0.105c0.035,0.034,0.064,0.077,0.104,0.105     c0.035,0.033,0.063,0.074,0.101,0.104c0.036,0.034,0.065,0.078,0.104,0.108c0.035,0.033,0.064,0.076,0.104,0.104     c0.034,0.033,0.063,0.076,0.103,0.104c0.034,0.033,0.063,0.078,0.104,0.106c0.035,0.034,0.064,0.077,0.104,0.107     c0.037,0.034,0.065,0.077,0.104,0.106c0.034,0.031,0.063,0.073,0.101,0.104c0.034,0.033,0.065,0.076,0.104,0.107     c0.035,0.032,0.064,0.075,0.104,0.104c0.036,0.032,0.064,0.077,0.104,0.106c0.035,0.032,0.064,0.075,0.104,0.104     c0.035,0.033,0.063,0.077,0.104,0.105c0.037,0.035,0.068,0.078,0.105,0.108c0.033,0.031,0.063,0.073,0.098,0.101     c0.037,0.035,0.066,0.08,0.107,0.111c0.035,0.032,0.063,0.075,0.102,0.104c0.035,0.033,0.064,0.078,0.104,0.106     c0.035,0.032,0.063,0.075,0.103,0.104c0.037,0.033,0.065,0.076,0.104,0.105c0.035,0.033,0.063,0.077,0.104,0.106     c0.033,0.032,0.063,0.075,0.1,0.104c0.037,0.033,0.068,0.078,0.107,0.108c0.033,0.031,0.063,0.074,0.1,0.104     c0.036,0.033,0.064,0.076,0.104,0.106c0.037,0.032,0.065,0.075,0.104,0.104c0.036,0.034,0.064,0.077,0.104,0.106     c0.037,0.033,0.065,0.077,0.104,0.106c0.034,0.031,0.063,0.074,0.101,0.104c0.036,0.034,0.065,0.078,0.104,0.107     c0.035,0.033,0.066,0.076,0.104,0.107c0.035,0.031,0.063,0.074,0.102,0.104c0.035,0.033,0.064,0.078,0.104,0.107     c0.035,0.032,0.064,0.076,0.104,0.104c0.035,0.035,0.064,0.078,0.104,0.106c0.035,0.033,0.063,0.076,0.102,0.104     c0.035,0.033,0.064,0.078,0.104,0.105c0.035,0.035,0.066,0.078,0.105,0.108c0.035,0.032,0.063,0.075,0.102,0.104     c0.035,0.032,0.064,0.075,0.104,0.104c0.035,0.032,0.064,0.075,0.103,0.104c0.037,0.033,0.067,0.078,0.106,0.107     c0.033,0.032,0.062,0.074,0.099,0.104c0.036,0.035,0.065,0.08,0.104,0.109c0.035,0.032,0.064,0.076,0.104,0.105     c0.035,0.033,0.063,0.076,0.103,0.104c0.037,0.033,0.065,0.076,0.104,0.104c0.034,0.033,0.063,0.076,0.103,0.105     c0.034,0.033,0.065,0.076,0.104,0.106c0.035,0.032,0.064,0.075,0.102,0.104c0.037,0.035,0.066,0.078,0.104,0.107     c0.036,0.034,0.065,0.077,0.104,0.106c0.034,0.031,0.063,0.074,0.101,0.104c0.036,0.034,0.065,0.077,0.103,0.106     c0.037,0.033,0.066,0.078,0.104,0.105c0.035,0.033,0.063,0.076,0.104,0.105c0.035,0.033,0.063,0.076,0.104,0.104     c0.035,0.035,0.064,0.078,0.104,0.108c0.035,0.033,0.064,0.076,0.104,0.104c0.035,0.033,0.064,0.076,0.104,0.105     c0.035,0.033,0.063,0.076,0.101,0.104c0.037,0.033,0.067,0.078,0.106,0.106c0.035,0.033,0.063,0.076,0.101,0.104     c0.037,0.034,0.065,0.077,0.104,0.106c0.034,0.033,0.063,0.076,0.103,0.105c0.035,0.032,0.065,0.077,0.104,0.106     c0.034,0.032,0.063,0.075,0.103,0.104c0.035,0.032,0.063,0.075,0.102,0.104c0.036,0.035,0.066,0.078,0.105,0.107     c0.035,0.033,0.063,0.075,0.101,0.104c0.036,0.032,0.065,0.078,0.104,0.106c0.034,0.033,0.063,0.076,0.104,0.105     c0.035,0.033,0.064,0.076,0.104,0.105c0.035,0.033,0.064,0.076,0.104,0.104c0.035,0.033,0.063,0.076,0.104,0.104     c0.034,0.033,0.065,0.078,0.104,0.107c0.035,0.033,0.063,0.076,0.104,0.105c0.034,0.031,0.063,0.074,0.102,0.104     c0.037,0.032,0.066,0.077,0.104,0.105c0.035,0.033,0.064,0.076,0.103,0.105c0.037,0.035,0.068,0.079,0.106,0.109     c0.033,0.031,0.063,0.072,0.099,0.102c0.037,0.035,0.067,0.079,0.106,0.109c0.035,0.033,0.063,0.076,0.101,0.104     c0.037,0.034,0.065,0.078,0.104,0.107c0.034,0.032,0.063,0.075,0.103,0.104c0.035,0.033,0.063,0.078,0.104,0.106     c0.036,0.034,0.066,0.077,0.104,0.108c0.035,0.031,0.063,0.072,0.1,0.103c0.037,0.035,0.068,0.079,0.107,0.11     c0.035,0.031,0.063,0.074,0.102,0.104c0.036,0.033,0.064,0.077,0.104,0.105c0.035,0.033,0.064,0.076,0.104,0.104     c0.036,0.034,0.064,0.077,0.104,0.107c0.035,0.032,0.064,0.075,0.104,0.104c0.034,0.033,0.063,0.075,0.103,0.104     c0.034,0.034,0.065,0.077,0.104,0.108c0.035,0.032,0.063,0.074,0.101,0.104c0.037,0.034,0.066,0.077,0.104,0.106     c0.035,0.033,0.063,0.076,0.103,0.104c0.035,0.033,0.065,0.077,0.104,0.106c0.035,0.033,0.063,0.076,0.104,0.105     c0.035,0.033,0.063,0.076,0.104,0.104c0.033,0.035,0.064,0.078,0.104,0.108c0.035,0.033,0.064,0.077,0.104,0.106     c0.035,0.031,0.063,0.074,0.103,0.104c0.035,0.034,0.063,0.077,0.104,0.107c0.035,0.033,0.063,0.076,0.104,0.104     c0.035,0.034,0.064,0.078,0.104,0.108c0.035,0.03,0.063,0.073,0.101,0.104c0.036,0.033,0.065,0.077,0.104,0.106     c0.035,0.033,0.065,0.078,0.104,0.106c0.035,0.033,0.063,0.074,0.102,0.104c0.035,0.034,0.065,0.078,0.104,0.106     c0.035,0.033,0.063,0.076,0.103,0.104c0.037,0.034,0.065,0.078,0.104,0.106c0.035,0.033,0.063,0.076,0.104,0.104     c0.036,0.034,0.064,0.077,0.104,0.106c0.035,0.033,0.064,0.076,0.104,0.105c0.035,0.033,0.064,0.076,0.104,0.105     c0.035,0.033,0.064,0.076,0.104,0.105c0.036,0.032,0.065,0.076,0.104,0.105c0.035,0.031,0.063,0.074,0.104,0.104     c0.034,0.034,0.064,0.078,0.104,0.107c0.035,0.033,0.064,0.076,0.102,0.105c0.036,0.032,0.066,0.078,0.104,0.105     c0.037,0.033,0.066,0.076,0.104,0.104c0.035,0.033,0.064,0.076,0.102,0.105c0.037,0.034,0.066,0.078,0.104,0.107     c0.035,0.033,0.063,0.076,0.103,0.104c0.035,0.034,0.064,0.077,0.104,0.107c0.035,0.031,0.063,0.074,0.103,0.104     c0.037,0.035,0.067,0.079,0.105,0.109c0.035,0.031,0.063,0.074,0.102,0.104c0.035,0.032,0.063,0.076,0.104,0.105     c0.036,0.033,0.064,0.076,0.104,0.107C59.126,78.486,60,78.5,60,78.5s2,0,2-2v-1.211c0.025,0.023,0.049,0.055,0.076,0.077     c0.035,0.032,0.064,0.073,0.101,0.104c0.036,0.032,0.067,0.075,0.105,0.105c0.034,0.033,0.065,0.074,0.103,0.105     c0.035,0.032,0.065,0.074,0.104,0.104c0.035,0.034,0.064,0.075,0.103,0.106c0.036,0.032,0.067,0.075,0.104,0.105     c0.037,0.034,0.066,0.076,0.104,0.105c0.034,0.033,0.063,0.074,0.102,0.104c0.035,0.034,0.065,0.077,0.104,0.106     c0.036,0.035,0.064,0.076,0.104,0.105c0.033,0.034,0.063,0.075,0.102,0.105c0.036,0.033,0.064,0.074,0.104,0.105     c0.035,0.033,0.064,0.076,0.104,0.105c0.036,0.035,0.066,0.076,0.104,0.106c0.035,0.033,0.064,0.074,0.102,0.104     c0.033,0.031,0.064,0.076,0.104,0.105c0.035,0.033,0.066,0.076,0.104,0.106c0.032,0.034,0.063,0.075,0.103,0.104     c0.034,0.034,0.064,0.075,0.104,0.105c0.035,0.035,0.066,0.077,0.104,0.105c0.036,0.035,0.066,0.076,0.104,0.107     c0.034,0.033,0.063,0.074,0.101,0.104c0.035,0.035,0.066,0.078,0.104,0.106c0.034,0.034,0.063,0.075,0.102,0.104     C65.139,78.486,66,78.5,66,78.5s2,0,1.95-1.852L68,72.5h2c0.771,0.001,1-1,1-1v-4.23c0.029,0.031,0.061,0.063,0.091,0.09     c0.032,0.037,0.063,0.072,0.101,0.104c0.033,0.037,0.067,0.073,0.104,0.108c0.034,0.035,0.067,0.072,0.104,0.104     c0.031,0.034,0.063,0.069,0.098,0.103c0.036,0.039,0.07,0.078,0.109,0.113c0.033,0.034,0.063,0.068,0.099,0.103     c0.035,0.037,0.069,0.073,0.106,0.108c0.03,0.035,0.063,0.069,0.1,0.104c0.035,0.037,0.068,0.074,0.105,0.107     c0.031,0.037,0.063,0.07,0.101,0.104c0.034,0.038,0.069,0.075,0.108,0.109c0.029,0.033,0.063,0.068,0.097,0.102     c0.034,0.037,0.067,0.074,0.104,0.107c0.033,0.037,0.067,0.072,0.104,0.106C72.896,69.246,73.418,69.5,74,69.5     c1.104,0,2-0.896,2-2v-7C76,59.927,75.755,59.413,75.368,59.048z" enable-background="new    " fill="url(#SVGID_3_)" opacity="0.1"/></g></g></g><g id="Droid"><path d="M24,26.5v13c0,0,0.228,1.001,1,1h2l0.05,4.148C27,46.5,29,46.5,29,46.5s2,0,2-2v-4h1   h1v4c0,2,2,2,2,2s2,0,1.95-1.852L37,40.5h2c0.771,0.001,1-1,1-1v-13h-8H24z" fill="#FFFFFF" id="bottom_and_foot"/><path d="M43,26.5c-1.104,0-2,0.896-2,2v7c0,1.104,0.896,2,2,2s2-0.896,2-2v-7   C45,27.396,44.104,26.5,43,26.5z" fill="#FFFFFF" id="Right_hand"/><path d="M21,26.5c-1.104,0-2,0.896-2,2v7c0,1.104,0.896,2,2,2s2-0.896,2-2v-7   C23,27.396,22.104,26.5,21,26.5z" fill="#FFFFFF" id="Left_hand"/><path d="M40,18.016c0-0.276-0.225-0.5-0.5-0.5c-0.164,0-0.281,0.094-0.395,0.207l-2.103,2.121   C35.706,18.996,34.02,18.5,32,18.5c-2.016,0-3.698,0.494-4.998,1.337l-2.108-2.13C24.781,17.594,24.665,17.5,24.5,17.5   c-0.276,0-0.5,0.224-0.5,0.5c0,0.143,0.062,0.271,0.158,0.361l2.037,2.081C24.778,21.696,24,23.468,24,25.5h16   c0-2.029-0.773-3.798-2.188-5.051l2.025-2.072C39.938,18.286,40,18.159,40,18.016z M28,23.5c-0.552,0-1-0.448-1-1s0.448-1,1-1   s1,0.448,1,1S28.552,23.5,28,23.5z M36,23.5c-0.553,0-1-0.448-1-1s0.447-1,1-1s1,0.448,1,1S36.553,23.5,36,23.5z" fill="#FFFFFF" id="Head"/></g></svg>